<svg xmlns="http://www.w3.org/2000/svg" width="1440" height="900"><path d="M775,517L709,516L736,595Z" fill="#e354a2" stroke="#e354a2" stroke-width="1.51"/><path d="M709,516L685,599L736,595Z" fill="#e353a1" stroke="#e353a1" stroke-width="1.51"/><path d="M709,516L600,535L685,599Z" fill="#e05da6" stroke="#e05da6" stroke-width="1.51"/><path d="M685,599L657,686L736,595Z" fill="#e14e9a" stroke="#e14e9a" stroke-width="1.51"/><path d="M533,626L657,686L685,599Z" fill="#de579b" stroke="#de579b" stroke-width="1.51"/><path d="M736,595L894,612L775,517Z" fill="#e54799" stroke="#e54799" stroke-width="1.51"/><path d="M788,714L894,612L736,595Z" fill="#e23f8e" stroke="#e23f8e" stroke-width="1.51"/><path d="M775,517L770,377L709,516Z" fill="#e15fab" stroke="#e15fab" stroke-width="1.51"/><path d="M894,612L899,496L775,517Z" fill="#e54699" stroke="#e54699" stroke-width="1.51"/><path d="M657,686L788,714L736,595Z" fill="#df4891" stroke="#df4891" stroke-width="1.51"/><path d="M895,408L770,377L775,517Z" fill="#e05fa9" stroke="#e05fa9" stroke-width="1.51"/><path d="M709,516L658,378L600,535Z" fill="#de69af" stroke="#de69af" stroke-width="1.51"/><path d="M770,377L658,378L709,516Z" fill="#dd6bb2" stroke="#dd6bb2" stroke-width="1.51"/><path d="M894,612L937,608L899,496Z" fill="#e63890" stroke="#e63890" stroke-width="1.51"/><path d="M955,678L937,608L894,612Z" fill="#e52b86" stroke="#e52b86" stroke-width="1.51"/><path d="M899,496L895,408L775,517Z" fill="#e353a1" stroke="#e353a1" stroke-width="1.51"/><path d="M984,477L895,408L899,496Z" fill="#e44d9d" stroke="#e44d9d" stroke-width="1.51"/><path d="M770,377L751,337L658,378Z" fill="#da73b6" stroke="#da73b6" stroke-width="1.51"/><path d="M869,279L751,337L770,377Z" fill="#d972b2" stroke="#d972b2" stroke-width="1.51"/><path d="M788,714L849,732L894,612Z" fill="#df3683" stroke="#df3683" stroke-width="1.51"/><path d="M794,832L849,732L788,714Z" fill="#d8377a" stroke="#d8377a" stroke-width="1.51"/><path d="M600,535L533,626L685,599Z" fill="#df5ea4" stroke="#df5ea4" stroke-width="1.51"/><path d="M507,609L533,626L600,535Z" fill="#de65a7" stroke="#de65a7" stroke-width="1.51"/><path d="M657,686L699,772L788,714Z" fill="#db4687" stroke="#db4687" stroke-width="1.51"/><path d="M600,831L699,772L657,686Z" fill="#d44d84" stroke="#d44d84" stroke-width="1.51"/><path d="M658,378L557,395L600,535Z" fill="#d974b7" stroke="#d974b7" stroke-width="1.51"/><path d="M609,280L557,395L658,378Z" fill="#d482bd" stroke="#d482bd" stroke-width="1.51"/><path d="M430,533L507,609L600,535Z" fill="#db6dac" stroke="#db6dac" stroke-width="1.51"/><path d="M533,626L533,700L657,686Z" fill="#da5c98" stroke="#da5c98" stroke-width="1.51"/><path d="M849,732L955,678L894,612Z" fill="#e12e81" stroke="#e12e81" stroke-width="1.51"/><path d="M937,608L984,477L899,496Z" fill="#e63e93" stroke="#e63e93" stroke-width="1.51"/><path d="M1054,588L984,477L937,608Z" fill="#e4338a" stroke="#e4338a" stroke-width="1.51"/><path d="M492,678L533,700L533,626Z" fill="#d8639a" stroke="#d8639a" stroke-width="1.51"/><path d="M557,395L506,433L600,535Z" fill="#d877b8" stroke="#d877b8" stroke-width="1.51"/><path d="M360,603L492,678L507,609Z" fill="#db6ca4" stroke="#db6ca4" stroke-width="1.51"/><path d="M507,609L492,678L533,626Z" fill="#da66a0" stroke="#da66a0" stroke-width="1.51"/><path d="M751,337L672,273L658,378Z" fill="#d67cba" stroke="#d67cba" stroke-width="1.51"/><path d="M557,395L469,285L506,433Z" fill="#d088c0" stroke="#d088c0" stroke-width="1.51"/><path d="M781,200L672,273L751,337Z" fill="#d780bc" stroke="#d780bc" stroke-width="1.51"/><path d="M699,772L794,832L788,714Z" fill="#d63e7d" stroke="#d63e7d" stroke-width="1.51"/><path d="M849,732L893,813L955,678Z" fill="#db2976" stroke="#db2976" stroke-width="1.51"/><path d="M706,873L794,832L699,772Z" fill="#cb3e7c" stroke="#cb3e7c" stroke-width="1.51"/><path d="M895,408L869,279L770,377Z" fill="#dc6aac" stroke="#dc6aac" stroke-width="1.51"/><path d="M998,316L869,279L895,408Z" fill="#dd66a8" stroke="#dd66a8" stroke-width="1.51"/><path d="M672,273L609,280L658,378Z" fill="#d284be" stroke="#d284be" stroke-width="1.51"/><path d="M794,832L893,813L849,732Z" fill="#d23075" stroke="#d23075" stroke-width="1.51"/><path d="M506,433L430,533L600,535Z" fill="#d875b4" stroke="#d875b4" stroke-width="1.51"/><path d="M400,489L430,533L506,433Z" fill="#d87eb9" stroke="#d87eb9" stroke-width="1.51"/><path d="M955,678L1054,588L937,608Z" fill="#e32682" stroke="#e32682" stroke-width="1.51"/><path d="M984,477L1004,369L895,408Z" fill="#e2539e" stroke="#e2539e" stroke-width="1.51"/><path d="M1111,693L1054,588L955,678Z" fill="#de2176" stroke="#de2176" stroke-width="1.51"/><path d="M533,700L600,831L657,686Z" fill="#d65589" stroke="#d65589" stroke-width="1.51"/><path d="M584,875L600,831L445,793Z" fill="#c45785" stroke="#c45785" stroke-width="1.51"/><path d="M1042,380L1004,369L984,477Z" fill="#df5298" stroke="#df5298" stroke-width="1.51"/><path d="M600,831L706,873L699,772Z" fill="#ca477f" stroke="#ca477f" stroke-width="1.51"/><path d="M794,832L866,886L893,813Z" fill="#c92d71" stroke="#c92d71" stroke-width="1.51"/><path d="M706,873L761,889L794,832Z" fill="#c43977" stroke="#c43977" stroke-width="1.51"/><path d="M1004,369L998,316L895,408Z" fill="#df5da1" stroke="#df5da1" stroke-width="1.51"/><path d="M1103,493L1042,380L984,477Z" fill="#df4991" stroke="#df4991" stroke-width="1.51"/><path d="M1042,380L998,316L1004,369Z" fill="#dc5d9b" stroke="#dc5d9b" stroke-width="1.51"/><path d="M387,705L445,793L492,678Z" fill="#d56793" stroke="#d56793" stroke-width="1.51"/><path d="M369,392L400,489L506,433Z" fill="#d686bf" stroke="#d686bf" stroke-width="1.51"/><path d="M869,279L781,200L751,337Z" fill="#d97bb6" stroke="#d97bb6" stroke-width="1.51"/><path d="M672,273L571,190L609,280Z" fill="#d28fc3" stroke="#d28fc3" stroke-width="1.51"/><path d="M985,225L878,229L869,279Z" fill="#dd74ae" stroke="#dd74ae" stroke-width="1.51"/><path d="M893,813L982,801L955,678Z" fill="#d91e70" stroke="#d91e70" stroke-width="1.51"/><path d="M976,934L982,801L893,813Z" fill="#c91969" stroke="#c91969" stroke-width="1.51"/><path d="M878,229L781,200L869,279Z" fill="#dc7bb5" stroke="#dc7bb5" stroke-width="1.51"/><path d="M761,889L866,886L794,832Z" fill="#c43272" stroke="#c43272" stroke-width="1.51"/><path d="M600,831L584,875L706,873Z" fill="#c24a7e" stroke="#c24a7e" stroke-width="1.51"/><path d="M793,1019L841,994L761,889Z" fill="#b22f68" stroke="#b22f68" stroke-width="1.51"/><path d="M445,793L600,831L533,700Z" fill="#ce5c89" stroke="#ce5c89" stroke-width="1.51"/><path d="M445,793L533,700L492,678Z" fill="#d36392" stroke="#d36392" stroke-width="1.51"/><path d="M1054,588L1103,493L984,477Z" fill="#e03a88" stroke="#e03a88" stroke-width="1.51"/><path d="M1163,626L1103,493L1054,588Z" fill="#de2b7b" stroke="#de2b7b" stroke-width="1.51"/><path d="M609,280L469,285L557,395Z" fill="#ce8cc3" stroke="#ce8cc3" stroke-width="1.51"/><path d="M571,190L469,285L609,280Z" fill="#ce95c7" stroke="#ce95c7" stroke-width="1.51"/><path d="M982,801L1048,779L955,678Z" fill="#d81b6a" stroke="#d81b6a" stroke-width="1.51"/><path d="M1063,934L1048,779L982,801Z" fill="#c61560" stroke="#c61560" stroke-width="1.51"/><path d="M360,603L507,609L430,533Z" fill="#dd72ad" stroke="#dd72ad" stroke-width="1.51"/><path d="M400,489L360,603L430,533Z" fill="#dd7bb4" stroke="#dd7bb4" stroke-width="1.51"/><path d="M247,605L360,603L245,464Z" fill="#e082b6" stroke="#e082b6" stroke-width="1.51"/><path d="M781,200L693,166L672,273Z" fill="#d989c1" stroke="#d989c1" stroke-width="1.51"/><path d="M730,128L693,166L781,200Z" fill="#dc8ec2" stroke="#dc8ec2" stroke-width="1.51"/><path d="M360,603L387,705L492,678Z" fill="#da6da0" stroke="#da6da0" stroke-width="1.51"/><path d="M998,316L985,225L869,279Z" fill="#dd6da9" stroke="#dd6da9" stroke-width="1.51"/><path d="M1042,380L1031,289L998,316Z" fill="#da629c" stroke="#da629c" stroke-width="1.51"/><path d="M1211,267L1031,289L1042,380Z" fill="#d66295" stroke="#d66295" stroke-width="1.51"/><path d="M1048,779L1111,693L955,678Z" fill="#d91c6b" stroke="#d91c6b" stroke-width="1.51"/><path d="M693,166L571,190L672,273Z" fill="#d691c4" stroke="#d691c4" stroke-width="1.51"/><path d="M469,285L369,392L506,433Z" fill="#d08dc3" stroke="#d08dc3" stroke-width="1.51"/><path d="M893,85L730,128L781,200Z" fill="#e08cbe" stroke="#e08cbe" stroke-width="1.51"/><path d="M1031,289L985,225L998,316Z" fill="#da6aa2" stroke="#da6aa2" stroke-width="1.51"/><path d="M387,705L403,776L445,793Z" fill="#d3688f" stroke="#d3688f" stroke-width="1.51"/><path d="M434,906L605,986L584,875Z" fill="#b4517d" stroke="#b4517d" stroke-width="1.51"/><path d="M347,881L248,838L306,890Z" fill="#c16a8b" stroke="#c16a8b" stroke-width="1.51"/><path d="M693,166L677,118L571,190Z" fill="#d797c8" stroke="#d797c8" stroke-width="1.51"/><path d="M893,85L781,200L878,229Z" fill="#df83b8" stroke="#df83b8" stroke-width="1.51"/><path d="M1161,703L1163,626L1111,693Z" fill="#d61a66" stroke="#d61a66" stroke-width="1.51"/><path d="M1111,693L1163,626L1054,588Z" fill="#dc1f71" stroke="#dc1f71" stroke-width="1.51"/><path d="M1103,493L1160,434L1042,380Z" fill="#db4a8b" stroke="#db4a8b" stroke-width="1.51"/><path d="M1163,626L1170,495L1103,493Z" fill="#db327a" stroke="#db327a" stroke-width="1.51"/><path d="M1170,495L1160,434L1103,493Z" fill="#da4083" stroke="#da4083" stroke-width="1.51"/><path d="M1031,289L1043,197L985,225Z" fill="#dc6fa3" stroke="#dc6fa3" stroke-width="1.51"/><path d="M730,128L677,118L693,166Z" fill="#db95c6" stroke="#db95c6" stroke-width="1.51"/><path d="M1135,800L1161,703L1111,693Z" fill="#d2165d" stroke="#d2165d" stroke-width="1.51"/><path d="M1163,626L1300,562L1170,495Z" fill="#d62a73" stroke="#d62a73" stroke-width="1.51"/><path d="M866,886L976,934L893,813Z" fill="#c3206a" stroke="#c3206a" stroke-width="1.51"/><path d="M1048,779L1135,800L1111,693Z" fill="#d2165e" stroke="#d2165e" stroke-width="1.51"/><path d="M947,969L976,934L866,886Z" fill="#ba1a64" stroke="#ba1a64" stroke-width="1.51"/><path d="M841,994L866,886L761,889Z" fill="#bb2d6d" stroke="#bb2d6d" stroke-width="1.51"/><path d="M793,1019L761,889L690,1021Z" fill="#b0356b" stroke="#b0356b" stroke-width="1.51"/><path d="M584,875L605,986L706,873Z" fill="#b8477a" stroke="#b8477a" stroke-width="1.51"/><path d="M434,906L584,875L445,793Z" fill="#be5b85" stroke="#be5b85" stroke-width="1.51"/><path d="M469,285L377,268L369,392Z" fill="#cd99c9" stroke="#cd99c9" stroke-width="1.51"/><path d="M463,159L377,268L469,285Z" fill="#cda0cd" stroke="#cda0cd" stroke-width="1.51"/><path d="M463,159L469,285L571,190Z" fill="#cd9ecc" stroke="#cd9ecc" stroke-width="1.51"/><path d="M985,225L982,138L878,229Z" fill="#e177ae" stroke="#e177ae" stroke-width="1.51"/><path d="M1174,185L1043,197L1031,289Z" fill="#d96e9b" stroke="#d96e9b" stroke-width="1.51"/><path d="M1063,934L1135,800L1048,779Z" fill="#c3125b" stroke="#c3125b" stroke-width="1.51"/><path d="M976,934L1063,934L982,801Z" fill="#bf1360" stroke="#bf1360" stroke-width="1.51"/><path d="M841,994L947,969L866,886Z" fill="#b62264" stroke="#b62264" stroke-width="1.51"/><path d="M347,881L434,906L445,793Z" fill="#c06288" stroke="#c06288" stroke-width="1.51"/><path d="M347,881L445,793L403,776Z" fill="#c9668c" stroke="#c9668c" stroke-width="1.51"/><path d="M841,994L946,1081L947,969Z" fill="#ac1b59" stroke="#ac1b59" stroke-width="1.51"/><path d="M690,1021L761,889L706,873Z" fill="#b83a74" stroke="#b83a74" stroke-width="1.51"/><path d="M605,986L690,1021L706,873Z" fill="#b14072" stroke="#b14072" stroke-width="1.51"/><path d="M1043,197L982,138L985,225Z" fill="#df76a8" stroke="#df76a8" stroke-width="1.51"/><path d="M730,128L735,5L677,118Z" fill="#e09aca" stroke="#e09aca" stroke-width="1.51"/><path d="M570,100L463,159L571,190Z" fill="#d1a2ce" stroke="#d1a2ce" stroke-width="1.51"/><path d="M593,-22L570,100L677,118Z" fill="#dca7d0" stroke="#dca7d0" stroke-width="1.51"/><path d="M677,118L570,100L571,190Z" fill="#d69ecb" stroke="#d69ecb" stroke-width="1.51"/><path d="M982,138L893,85L878,229Z" fill="#e280b4" stroke="#e280b4" stroke-width="1.51"/><path d="M377,268L273,404L369,392Z" fill="#d299c9" stroke="#d299c9" stroke-width="1.51"/><path d="M369,392L273,404L400,489Z" fill="#d78ec3" stroke="#d78ec3" stroke-width="1.51"/><path d="M360,603L231,698L387,705Z" fill="#dd75a2" stroke="#dd75a2" stroke-width="1.51"/><path d="M245,464L360,603L400,489Z" fill="#dd83b9" stroke="#dd83b9" stroke-width="1.51"/><path d="M947,969L1063,934L976,934Z" fill="#b5125b" stroke="#b5125b" stroke-width="1.51"/><path d="M1109,1017L1063,934L947,969Z" fill="#ae0f52" stroke="#ae0f52" stroke-width="1.51"/><path d="M570,100L462,132L463,159Z" fill="#d0a9d1" stroke="#d0a9d1" stroke-width="1.51"/><path d="M463,159L353,200L377,268Z" fill="#cfa7d0" stroke="#cfa7d0" stroke-width="1.51"/><path d="M377,268L233,282L273,404Z" fill="#d0a2ce" stroke="#d0a2ce" stroke-width="1.51"/><path d="M273,404L245,464L400,489Z" fill="#db8ec3" stroke="#db8ec3" stroke-width="1.51"/><path d="M248,838L403,776L387,705Z" fill="#d26d90" stroke="#d26d90" stroke-width="1.51"/><path d="M434,906L444,1012L605,986Z" fill="#aa5479" stroke="#aa5479" stroke-width="1.51"/><path d="M593,1137L687,1144L690,1021Z" fill="#a13d66" stroke="#a13d66" stroke-width="1.51"/><path d="M350,104L353,200L463,159Z" fill="#d1aed4" stroke="#d1aed4" stroke-width="1.51"/><path d="M273,404L147,437L245,464Z" fill="#dd97c8" stroke="#dd97c8" stroke-width="1.51"/><path d="M793,1019L835,1071L841,994Z" fill="#a82a5f" stroke="#a82a5f" stroke-width="1.51"/><path d="M779,1109L835,1071L793,1019Z" fill="#a42b5d" stroke="#a42b5d" stroke-width="1.51"/><path d="M247,605L231,698L360,603Z" fill="#e17baa" stroke="#e17baa" stroke-width="1.51"/><path d="M157,627L231,698L247,605Z" fill="#e381ab" stroke="#e381ab" stroke-width="1.51"/><path d="M1135,800L1259,705L1161,703Z" fill="#ce1358" stroke="#ce1358" stroke-width="1.51"/><path d="M1161,703L1259,705L1163,626Z" fill="#d21761" stroke="#d21761" stroke-width="1.51"/><path d="M1170,495L1271,426L1160,434Z" fill="#d54281" stroke="#d54281" stroke-width="1.51"/><path d="M1300,798L1259,705L1135,800Z" fill="#c40f52" stroke="#c40f52" stroke-width="1.51"/><path d="M1160,434L1211,267L1042,380Z" fill="#d6578c" stroke="#d6578c" stroke-width="1.51"/><path d="M1315,475L1271,426L1170,495Z" fill="#cf3e7c" stroke="#cf3e7c" stroke-width="1.51"/><path d="M842,-12L735,5L730,128Z" fill="#e59cc8" stroke="#e59cc8" stroke-width="1.51"/><path d="M570,100L463,-1L462,132Z" fill="#d4afd5" stroke="#d4afd5" stroke-width="1.51"/><path d="M1271,426L1211,267L1160,434Z" fill="#d05285" stroke="#d05285" stroke-width="1.51"/><path d="M1043,197L1083,64L982,138Z" fill="#e07da7" stroke="#e07da7" stroke-width="1.51"/><path d="M950,-1L842,-12L893,85Z" fill="#eb94be" stroke="#eb94be" stroke-width="1.51"/><path d="M379,1028L444,1012L434,906Z" fill="#aa597a" stroke="#aa597a" stroke-width="1.51"/><path d="M690,1021L779,1109L793,1019Z" fill="#a53161" stroke="#a53161" stroke-width="1.51"/><path d="M347,881L379,1028L434,906Z" fill="#b35f81" stroke="#b35f81" stroke-width="1.51"/><path d="M248,838L347,881L403,776Z" fill="#c76a8d" stroke="#c76a8d" stroke-width="1.51"/><path d="M1259,705L1300,562L1163,626Z" fill="#d01968" stroke="#d01968" stroke-width="1.51"/><path d="M835,1071L946,1081L841,994Z" fill="#a62158" stroke="#a62158" stroke-width="1.51"/><path d="M687,1144L779,1109L690,1021Z" fill="#a33563" stroke="#a33563" stroke-width="1.51"/><path d="M1211,267L1174,185L1031,289Z" fill="#d66a93" stroke="#d66a93" stroke-width="1.51"/><path d="M893,85L842,-12L730,128Z" fill="#e594c1" stroke="#e594c1" stroke-width="1.51"/><path d="M950,-1L893,85L982,138Z" fill="#e888b6" stroke="#e888b6" stroke-width="1.51"/><path d="M1063,934L1209,901L1135,800Z" fill="#b90c52" stroke="#b90c52" stroke-width="1.51"/><path d="M779,1109L946,1081L835,1071Z" fill="#a42458" stroke="#a42458" stroke-width="1.51"/><path d="M231,698L248,838L387,705Z" fill="#d97495" stroke="#d97495" stroke-width="1.51"/><path d="M283,196L233,282L377,268Z" fill="#d0aad2" stroke="#d0aad2" stroke-width="1.51"/><path d="M127,511L157,627L247,605Z" fill="#e789b8" stroke="#e789b8" stroke-width="1.51"/><path d="M1271,426L1244,260L1211,267Z" fill="#c95b88" stroke="#c95b88" stroke-width="1.51"/><path d="M1211,267L1244,260L1174,185Z" fill="#d0688e" stroke="#d0688e" stroke-width="1.51"/><path d="M1300,562L1315,475L1170,495Z" fill="#cf3477" stroke="#cf3477" stroke-width="1.51"/><path d="M353,200L283,196L377,268Z" fill="#d0aad2" stroke="#d0aad2" stroke-width="1.51"/><path d="M350,104L283,196L353,200Z" fill="#d2b1d6" stroke="#d2b1d6" stroke-width="1.51"/><path d="M350,104L463,159L462,132Z" fill="#d1aed4" stroke="#d1aed4" stroke-width="1.51"/><path d="M1284,211L1244,260L1373,340Z" fill="#c36088" stroke="#c36088" stroke-width="1.51"/><path d="M1109,1017L1209,901L1063,934Z" fill="#ad0a4b" stroke="#ad0a4b" stroke-width="1.51"/><path d="M1367,614L1335,529L1300,562Z" fill="#c7246c" stroke="#c7246c" stroke-width="1.51"/><path d="M1042,28L950,-1L982,138Z" fill="#e889b2" stroke="#e889b2" stroke-width="1.51"/><path d="M231,698L176,798L248,838Z" fill="#d67895" stroke="#d67895" stroke-width="1.51"/><path d="M127,511L247,605L245,464Z" fill="#e38dbd" stroke="#e38dbd" stroke-width="1.51"/><path d="M685,-41L593,-22L677,118Z" fill="#e1a9d1" stroke="#e1a9d1" stroke-width="1.51"/><path d="M685,-41L677,118L735,5Z" fill="#e3a4ce" stroke="#e3a4ce" stroke-width="1.51"/><path d="M789,-109L735,5L842,-12Z" fill="#eba2ca" stroke="#eba2ca" stroke-width="1.51"/><path d="M789,-109L685,-41L735,5Z" fill="#eaa7cf" stroke="#eaa7cf" stroke-width="1.51"/><path d="M405,21L350,104L462,132Z" fill="#d5b5d8" stroke="#d5b5d8" stroke-width="1.51"/><path d="M1159,105L1043,197L1174,185Z" fill="#db759a" stroke="#db759a" stroke-width="1.51"/><path d="M1159,105L1083,64L1043,197Z" fill="#de7ca1" stroke="#de7ca1" stroke-width="1.51"/><path d="M1373,340L1244,260L1271,426Z" fill="#c45584" stroke="#c45584" stroke-width="1.51"/><path d="M1300,562L1335,529L1315,475Z" fill="#c93073" stroke="#c93073" stroke-width="1.51"/><path d="M1367,614L1300,562L1259,705Z" fill="#c81765" stroke="#c81765" stroke-width="1.51"/><path d="M157,627L169,711L231,698Z" fill="#e281a6" stroke="#e281a6" stroke-width="1.51"/><path d="M1093,1069L1109,1017L947,969Z" fill="#a60e4b" stroke="#a60e4b" stroke-width="1.51"/><path d="M593,1137L690,1021L605,986Z" fill="#a14168" stroke="#a14168" stroke-width="1.51"/><path d="M779,1109L1179,1144L946,1081Z" fill="#a4114f" stroke="#a4114f" stroke-width="1.51"/><path d="M444,1012L593,1137L605,986Z" fill="#9f4a6c" stroke="#9f4a6c" stroke-width="1.51"/><path d="M306,890L379,1028L347,881Z" fill="#b46383" stroke="#b46383" stroke-width="1.51"/><path d="M259,997L379,1028L306,890Z" fill="#af637f" stroke="#af637f" stroke-width="1.51"/><path d="M1083,64L1042,28L982,138Z" fill="#e585ab" stroke="#e585ab" stroke-width="1.51"/><path d="M233,282L147,437L273,404Z" fill="#d8a1cd" stroke="#d8a1cd" stroke-width="1.51"/><path d="M431,1108L593,1137L444,1012Z" fill="#9c506d" stroke="#9c506d" stroke-width="1.51"/><path d="M1083,64L1155,-24L1042,28Z" fill="#e68aa7" stroke="#e68aa7" stroke-width="1.51"/><path d="M1306,91L1159,105L1174,185Z" fill="#d57695" stroke="#d57695" stroke-width="1.51"/><path d="M1209,901L1300,798L1135,800Z" fill="#ba0b4f" stroke="#ba0b4f" stroke-width="1.51"/><path d="M1304,886L1300,798L1209,901Z" fill="#ae064b" stroke="#ae064b" stroke-width="1.51"/><path d="M1300,798L1333,714L1259,705Z" fill="#c00e53" stroke="#c00e53" stroke-width="1.51"/><path d="M147,437L127,511L245,464Z" fill="#e197c7" stroke="#e197c7" stroke-width="1.51"/><path d="M157,627L25,692L169,711Z" fill="#e687aa" stroke="#e687aa" stroke-width="1.51"/><path d="M470,-95L463,-1L593,-22Z" fill="#dcbbdb" stroke="#dcbbdb" stroke-width="1.51"/><path d="M593,-22L463,-1L570,100Z" fill="#dab2d6" stroke="#dab2d6" stroke-width="1.51"/><path d="M248,838L193,870L306,890Z" fill="#c46f8e" stroke="#c46f8e" stroke-width="1.51"/><path d="M169,711L176,798L231,698Z" fill="#de7d9c" stroke="#de7d9c" stroke-width="1.51"/><path d="M81,816L176,798L169,711Z" fill="#db7f99" stroke="#db7f99" stroke-width="1.51"/><path d="M463,-1L405,21L462,132Z" fill="#d6b7d9" stroke="#d6b7d9" stroke-width="1.51"/><path d="M350,104L241,123L283,196Z" fill="#d4b8d9" stroke="#d4b8d9" stroke-width="1.51"/><path d="M1109,1017L1188,1027L1209,901Z" fill="#a60843" stroke="#a60843" stroke-width="1.51"/><path d="M946,1081L1093,1069L947,969Z" fill="#a5104e" stroke="#a5104e" stroke-width="1.51"/><path d="M1179,1144L1093,1069L946,1081Z" fill="#9e0c44" stroke="#9e0c44" stroke-width="1.51"/><path d="M1333,714L1367,614L1259,705Z" fill="#c3135c" stroke="#c3135c" stroke-width="1.51"/><path d="M1380,403L1271,426L1315,475Z" fill="#c5417c" stroke="#c5417c" stroke-width="1.51"/><path d="M176,798L193,870L248,838Z" fill="#cc7592" stroke="#cc7592" stroke-width="1.51"/><path d="M1244,260L1284,211L1174,185Z" fill="#ce6a8e" stroke="#ce6a8e" stroke-width="1.51"/><path d="M1380,403L1315,475L1335,529Z" fill="#c43a78" stroke="#c43a78" stroke-width="1.51"/><path d="M379,1028L431,1108L444,1012Z" fill="#9f5670" stroke="#9f5670" stroke-width="1.51"/><path d="M344,1098L431,1108L379,1028Z" fill="#9f5871" stroke="#9f5871" stroke-width="1.51"/><path d="M127,511L101,521L157,627Z" fill="#e891be" stroke="#e891be" stroke-width="1.51"/><path d="M176,798L81,816L193,870Z" fill="#d07a95" stroke="#d07a95" stroke-width="1.51"/><path d="M147,437L101,521L127,511Z" fill="#e599c6" stroke="#e599c6" stroke-width="1.51"/><path d="M1093,1069L1188,1027L1109,1017Z" fill="#9e0940" stroke="#9e0940" stroke-width="1.51"/><path d="M1478,504L1380,403L1335,529Z" fill="#be3674" stroke="#be3674" stroke-width="1.51"/><path d="M1300,798L1368,838L1333,714Z" fill="#b5094d" stroke="#b5094d" stroke-width="1.51"/><path d="M1333,714L1449,627L1367,614Z" fill="#bd135d" stroke="#bd135d" stroke-width="1.51"/><path d="M1285,989L1304,886L1209,901Z" fill="#a40446" stroke="#a40446" stroke-width="1.51"/><path d="M233,282L135,258L147,437Z" fill="#d6abd3" stroke="#d6abd3" stroke-width="1.51"/><path d="M147,437L28,421L101,521Z" fill="#e5a0cc" stroke="#e5a0cc" stroke-width="1.51"/><path d="M153,174L135,258L233,282Z" fill="#d5b6d9" stroke="#d5b6d9" stroke-width="1.51"/><path d="M258,-38L241,123L350,104Z" fill="#d9c2df" stroke="#d9c2df" stroke-width="1.51"/><path d="M193,870L259,997L306,890Z" fill="#ba6b89" stroke="#ba6b89" stroke-width="1.51"/><path d="M841,-115L842,-12L950,-1Z" fill="#ee9bc2" stroke="#ee9bc2" stroke-width="1.51"/><path d="M841,-115L789,-109L842,-12Z" fill="#eea1c8" stroke="#eea1c8" stroke-width="1.51"/><path d="M685,-41L630,-111L593,-22Z" fill="#e5b1d5" stroke="#e5b1d5" stroke-width="1.51"/><path d="M1380,403L1373,340L1271,426Z" fill="#c14a7e" stroke="#c14a7e" stroke-width="1.51"/><path d="M789,-109L630,-111L685,-41Z" fill="#eaacd3" stroke="#eaacd3" stroke-width="1.51"/><path d="M463,-1L470,-95L405,21Z" fill="#dac0dd" stroke="#dac0dd" stroke-width="1.51"/><path d="M789,-109L572,-143L630,-111Z" fill="#e9b2d6" stroke="#e9b2d6" stroke-width="1.51"/><path d="M1005,-119L841,-115L950,-1Z" fill="#f299bf" stroke="#f299bf" stroke-width="1.51"/><path d="M1068,-88L950,-1L1042,28Z" fill="#ec91b2" stroke="#ec91b2" stroke-width="1.51"/><path d="M153,174L233,282L283,196Z" fill="#d4b4d7" stroke="#d4b4d7" stroke-width="1.51"/><path d="M1304,886L1338,862L1300,798Z" fill="#ab054a" stroke="#ab054a" stroke-width="1.51"/><path d="M1441,886L1338,862L1391,1017Z" fill="#960041" stroke="#960041" stroke-width="1.51"/><path d="M431,1108L294,1123L593,1137Z" fill="#9d546f" stroke="#9d546f" stroke-width="1.51"/><path d="M259,997L344,1098L379,1028Z" fill="#a35e75" stroke="#a35e75" stroke-width="1.51"/><path d="M-51,531L53,591L101,521Z" fill="#ec99c2" stroke="#ec99c2" stroke-width="1.51"/><path d="M101,521L53,591L157,627Z" fill="#ea90bb" stroke="#ea90bb" stroke-width="1.51"/><path d="M1338,862L1368,838L1300,798Z" fill="#ac054a" stroke="#ac054a" stroke-width="1.51"/><path d="M1367,614L1478,504L1335,529Z" fill="#bf276c" stroke="#bf276c" stroke-width="1.51"/><path d="M1441,886L1368,838L1338,862Z" fill="#a10246" stroke="#a10246" stroke-width="1.51"/><path d="M35,305L28,421L147,437Z" fill="#e0acd2" stroke="#e0acd2" stroke-width="1.51"/><path d="M241,123L153,174L283,196Z" fill="#d5badb" stroke="#d5badb" stroke-width="1.51"/><path d="M95,190L153,174L101,77Z" fill="#dbc6e1" stroke="#dbc6e1" stroke-width="1.51"/><path d="M405,21L258,-38L350,104Z" fill="#dac2df" stroke="#dac2df" stroke-width="1.51"/><path d="M572,-143L470,-95L593,-22Z" fill="#e1badb" stroke="#e1badb" stroke-width="1.51"/><path d="M1255,1082L1285,989L1188,1027Z" fill="#950439" stroke="#950439" stroke-width="1.51"/><path d="M1188,1027L1285,989L1209,901Z" fill="#a00541" stroke="#a00541" stroke-width="1.51"/><path d="M1159,105L1155,-24L1083,64Z" fill="#e385a0" stroke="#e385a0" stroke-width="1.51"/><path d="M1258,33L1155,-24L1159,105Z" fill="#df849b" stroke="#df849b" stroke-width="1.51"/><path d="M1306,91L1174,185L1284,211Z" fill="#ce7090" stroke="#ce7090" stroke-width="1.51"/><path d="M1494,740L1449,627L1333,714Z" fill="#b40e54" stroke="#b40e54" stroke-width="1.51"/><path d="M1380,403L1504,379L1373,340Z" fill="#b74a7b" stroke="#b74a7b" stroke-width="1.51"/><path d="M259,997L294,1123L344,1098Z" fill="#a25f74" stroke="#a25f74" stroke-width="1.51"/><path d="M193,870L166,991L259,997Z" fill="#b76e86" stroke="#b76e86" stroke-width="1.51"/><path d="M25,692L81,816L169,711Z" fill="#e3869f" stroke="#e3869f" stroke-width="1.51"/><path d="M630,-111L572,-143L593,-22Z" fill="#e4b6d8" stroke="#e4b6d8" stroke-width="1.51"/><path d="M841,-115L572,-143L789,-109Z" fill="#eeacd2" stroke="#eeacd2" stroke-width="1.51"/><path d="M1155,-24L1068,-88L1042,28Z" fill="#ea8faa" stroke="#ea8faa" stroke-width="1.51"/><path d="M1068,-88L1005,-119L950,-1Z" fill="#f094b5" stroke="#f094b5" stroke-width="1.51"/><path d="M841,-115L1146,-146L572,-143Z" fill="#f2a2c7" stroke="#f2a2c7" stroke-width="1.51"/><path d="M35,305L147,437L135,258Z" fill="#d9b0d5" stroke="#d9b0d5" stroke-width="1.51"/><path d="M53,591L25,692L157,627Z" fill="#ea8db3" stroke="#ea8db3" stroke-width="1.51"/><path d="M104,941L166,991L193,870Z" fill="#bc738a" stroke="#bc738a" stroke-width="1.51"/><path d="M1335,101L1306,91L1284,211Z" fill="#c97190" stroke="#c97190" stroke-width="1.51"/><path d="M344,1098L294,1123L431,1108Z" fill="#a05a72" stroke="#a05a72" stroke-width="1.51"/><path d="M593,1137L-47,1143L687,1144Z" fill="#9e5670" stroke="#9e5670" stroke-width="1.51"/><path d="M141,1121L294,1123L259,997Z" fill="#a46577" stroke="#a46577" stroke-width="1.51"/><path d="M1306,91L1258,33L1159,105Z" fill="#d67c96" stroke="#d67c96" stroke-width="1.51"/><path d="M1155,-24L1146,-146L1068,-88Z" fill="#eb91a7" stroke="#eb91a7" stroke-width="1.51"/><path d="M-45,633L25,692L53,591Z" fill="#ed92b5" stroke="#ed92b5" stroke-width="1.51"/><path d="M1409,172L1335,101L1284,211Z" fill="#c26c8c" stroke="#c26c8c" stroke-width="1.51"/><path d="M1449,627L1478,504L1367,614Z" fill="#bb1d65" stroke="#bb1d65" stroke-width="1.51"/><path d="M1093,1069L1179,1144L1188,1027Z" fill="#9a073c" stroke="#9a073c" stroke-width="1.51"/><path d="M687,1144L1179,1144L779,1109Z" fill="#a52057" stroke="#a52057" stroke-width="1.51"/><path d="M153,174L95,190L135,258Z" fill="#d8bddc" stroke="#d8bddc" stroke-width="1.51"/><path d="M143,61L153,174L241,123Z" fill="#dac4e0" stroke="#dac4e0" stroke-width="1.51"/><path d="M1179,1144L1255,1082L1188,1027Z" fill="#950538" stroke="#950538" stroke-width="1.51"/><path d="M1495,776L1494,740L1368,838Z" fill="#a70646" stroke="#a70646" stroke-width="1.51"/><path d="M1306,91L1376,-28L1258,33Z" fill="#d07f96" stroke="#d07f96" stroke-width="1.51"/><path d="M1409,172L1284,211L1373,340Z" fill="#bd6187" stroke="#bd6187" stroke-width="1.51"/><path d="M95,190L35,305L135,258Z" fill="#d8bcdb" stroke="#d8bcdb" stroke-width="1.51"/><path d="M166,991L141,1121L259,997Z" fill="#aa6a7b" stroke="#aa6a7b" stroke-width="1.51"/><path d="M81,816L104,941L193,870Z" fill="#c97a92" stroke="#c97a92" stroke-width="1.51"/><path d="M101,1008L-63,1001L56,1067Z" fill="#b27783" stroke="#b27783" stroke-width="1.51"/><path d="M341,-101L258,-38L405,21Z" fill="#dec9e2" stroke="#dec9e2" stroke-width="1.51"/><path d="M341,-101L405,21L470,-95Z" fill="#ddc5e0" stroke="#ddc5e0" stroke-width="1.51"/><path d="M572,-143L341,-101L470,-95Z" fill="#e0c4e0" stroke="#e0c4e0" stroke-width="1.51"/><path d="M1464,237L1409,172L1373,340Z" fill="#b65d83" stroke="#b65d83" stroke-width="1.51"/><path d="M-51,531L-45,633L53,591Z" fill="#f097be" stroke="#f097be" stroke-width="1.51"/><path d="M35,305L-8,379L28,421Z" fill="#e0b2d6" stroke="#e0b2d6" stroke-width="1.51"/><path d="M-73,277L-8,379L35,305Z" fill="#ddbada" stroke="#ddbada" stroke-width="1.51"/><path d="M-59,219L-73,277L35,305Z" fill="#dcc1de" stroke="#dcc1de" stroke-width="1.51"/><path d="M157,14L143,61L241,123Z" fill="#ddcbe3" stroke="#ddcbe3" stroke-width="1.51"/><path d="M1449,627L1599,563L1478,504Z" fill="#b22060" stroke="#b22060" stroke-width="1.51"/><path d="M1368,838L1494,740L1333,714Z" fill="#b1084c" stroke="#b1084c" stroke-width="1.51"/><path d="M1338,862L1304,886L1391,1017Z" fill="#9b0243" stroke="#9b0243" stroke-width="1.51"/><path d="M1391,1017L1304,886L1285,989Z" fill="#96023e" stroke="#96023e" stroke-width="1.51"/><path d="M1478,504L1504,379L1380,403Z" fill="#b53e74" stroke="#b53e74" stroke-width="1.51"/><path d="M1539,337L1504,379L1614,418Z" fill="#a8456e" stroke="#a8456e" stroke-width="1.51"/><path d="M258,-38L157,14L241,123Z" fill="#ddcce4" stroke="#ddcce4" stroke-width="1.51"/><path d="M341,-101L263,-73L258,-38Z" fill="#e1cfe5" stroke="#e1cfe5" stroke-width="1.51"/><path d="M1601,479L1504,379L1478,504Z" fill="#ae376b" stroke="#ae376b" stroke-width="1.51"/><path d="M1441,886L1495,776L1368,838Z" fill="#a00344" stroke="#a00344" stroke-width="1.51"/><path d="M1482,260L1464,237L1373,340Z" fill="#b1597f" stroke="#b1597f" stroke-width="1.51"/><path d="M104,941L101,1008L166,991Z" fill="#b67385" stroke="#b67385" stroke-width="1.51"/><path d="M-35,926L104,941L81,816Z" fill="#c87f94" stroke="#c87f94" stroke-width="1.51"/><path d="M25,692L-45,781L81,816Z" fill="#e38a9f" stroke="#e38a9f" stroke-width="1.51"/><path d="M-51,531L101,521L28,421Z" fill="#eaa1ca" stroke="#eaa1ca" stroke-width="1.51"/><path d="M143,61L101,77L153,174Z" fill="#ddcae3" stroke="#ddcae3" stroke-width="1.51"/><path d="M191,-82L157,14L258,-38Z" fill="#e2d4e8" stroke="#e2d4e8" stroke-width="1.51"/><path d="M-8,379L-51,531L28,421Z" fill="#e8a8d1" stroke="#e8a8d1" stroke-width="1.51"/><path d="M1504,379L1482,260L1373,340Z" fill="#b0517b" stroke="#b0517b" stroke-width="1.51"/><path d="M157,14L101,77L143,61Z" fill="#e0d1e7" stroke="#e0d1e7" stroke-width="1.51"/><path d="M1567,792L1494,740L1495,776Z" fill="#a20642" stroke="#a20642" stroke-width="1.51"/><path d="M1255,1082L1391,1017L1285,989Z" fill="#8d0237" stroke="#8d0237" stroke-width="1.51"/><path d="M1386,1106L1391,1017L1255,1082Z" fill="#850133" stroke="#850133" stroke-width="1.51"/><path d="M1068,-88L1146,-146L1005,-119Z" fill="#ef95af" stroke="#ef95af" stroke-width="1.51"/><path d="M1005,-119L1146,-146L841,-115Z" fill="#f398b8" stroke="#f398b8" stroke-width="1.51"/><path d="M1303,-86L1146,-146L1155,-24Z" fill="#e58ea0" stroke="#e58ea0" stroke-width="1.51"/><path d="M1303,-86L1155,-24L1258,33Z" fill="#dd889c" stroke="#dd889c" stroke-width="1.51"/><path d="M1303,-86L1258,33L1376,-28Z" fill="#d48599" stroke="#d48599" stroke-width="1.51"/><path d="M1457,119L1335,101L1409,172Z" fill="#bd6d8b" stroke="#bd6d8b" stroke-width="1.51"/><path d="M-45,633L-60,670L25,692Z" fill="#ed92b1" stroke="#ed92b1" stroke-width="1.51"/><path d="M-113,602L-60,670L-45,633Z" fill="#f195b7" stroke="#f195b7" stroke-width="1.51"/><path d="M-60,670L-45,781L25,692Z" fill="#ea8fa7" stroke="#ea8fa7" stroke-width="1.51"/><path d="M1504,379L1539,337L1482,260Z" fill="#aa5076" stroke="#aa5076" stroke-width="1.51"/><path d="M1567,670L1449,627L1494,740Z" fill="#ad0e50" stroke="#ad0e50" stroke-width="1.51"/><path d="M101,1008L141,1121L166,991Z" fill="#ab6e7c" stroke="#ab6e7c" stroke-width="1.51"/><path d="M294,1123L-47,1143L593,1137Z" fill="#a26175" stroke="#a26175" stroke-width="1.51"/><path d="M56,1067L141,1121L101,1008Z" fill="#aa707c" stroke="#aa707c" stroke-width="1.51"/><path d="M1567,792L1567,670L1494,740Z" fill="#a40943" stroke="#a40943" stroke-width="1.51"/><path d="M1567,792L1495,776L1557,910Z" fill="#96033c" stroke="#96033c" stroke-width="1.51"/><path d="M1464,237L1457,119L1409,172Z" fill="#b66685" stroke="#b66685" stroke-width="1.51"/><path d="M1570,162L1457,119L1464,237Z" fill="#b06480" stroke="#b06480" stroke-width="1.51"/><path d="M1570,162L1464,237L1482,260Z" fill="#ad5e7d" stroke="#ad5e7d" stroke-width="1.51"/><path d="M263,-73L191,-82L258,-38Z" fill="#e2d3e8" stroke="#e2d3e8" stroke-width="1.51"/><path d="M52,-10L-12,103L101,77Z" fill="#e3d8ea" stroke="#e3d8ea" stroke-width="1.51"/><path d="M341,-101L191,-82L263,-73Z" fill="#e2d2e7" stroke="#e2d2e7" stroke-width="1.51"/><path d="M87,-95L191,-82L341,-101Z" fill="#e5d8ea" stroke="#e5d8ea" stroke-width="1.51"/><path d="M1376,-28L1306,91L1335,101Z" fill="#cb7a93" stroke="#cb7a93" stroke-width="1.51"/><path d="M1391,1017L1461,999L1441,886Z" fill="#8a0038" stroke="#8a0038" stroke-width="1.51"/><path d="M1386,1106L1461,999L1391,1017Z" fill="#800031" stroke="#800031" stroke-width="1.51"/><path d="M1179,1144L1386,1106L1255,1082Z" fill="#8e0336" stroke="#8e0336" stroke-width="1.51"/><path d="M-159,459L-51,531L-8,379Z" fill="#eba9d1" stroke="#eba9d1" stroke-width="1.51"/><path d="M-159,459L-113,602L-51,531Z" fill="#f0a2c7" stroke="#f0a2c7" stroke-width="1.51"/><path d="M-51,531L-113,602L-45,633Z" fill="#f299bf" stroke="#f299bf" stroke-width="1.51"/><path d="M-60,670L-121,694L-45,781Z" fill="#eb91a8" stroke="#eb91a8" stroke-width="1.51"/><path d="M1567,670L1599,563L1449,627Z" fill="#ae1256" stroke="#ae1256" stroke-width="1.51"/><path d="M1457,119L1376,-28L1335,101Z" fill="#c47790" stroke="#c47790" stroke-width="1.51"/><path d="M-59,219L35,305L95,190Z" fill="#dbc2df" stroke="#dbc2df" stroke-width="1.51"/><path d="M-59,219L95,190L-12,103Z" fill="#decbe3" stroke="#decbe3" stroke-width="1.51"/><path d="M-35,926L81,816L-45,781Z" fill="#d58599" stroke="#d58599" stroke-width="1.51"/><path d="M-35,926L101,1008L104,941Z" fill="#bd7a8c" stroke="#bd7a8c" stroke-width="1.51"/><path d="M1567,670L1644,638L1599,563Z" fill="#a61150" stroke="#a61150" stroke-width="1.51"/><path d="M1557,910L1495,776L1441,886Z" fill="#95023e" stroke="#95023e" stroke-width="1.51"/><path d="M1539,337L1570,162L1482,260Z" fill="#a95979" stroke="#a95979" stroke-width="1.51"/><path d="M1599,563L1601,479L1478,504Z" fill="#ab2b61" stroke="#ab2b61" stroke-width="1.51"/><path d="M-102,812L-35,926L-45,781Z" fill="#d7879a" stroke="#d7879a" stroke-width="1.51"/><path d="M-12,103L95,190L101,77Z" fill="#decee5" stroke="#decee5" stroke-width="1.51"/><path d="M-113,602L-121,694L-60,670Z" fill="#f095b4" stroke="#f095b4" stroke-width="1.51"/><path d="M52,-10L101,77L157,14Z" fill="#e3d7ea" stroke="#e3d7ea" stroke-width="1.51"/><path d="M1303,-86L1340,-92L1146,-146Z" fill="#de8c9d" stroke="#de8c9d" stroke-width="1.51"/><path d="M1376,-28L1340,-92L1303,-86Z" fill="#d28699" stroke="#d28699" stroke-width="1.51"/><path d="M1601,479L1614,418L1504,379Z" fill="#a83c69" stroke="#a83c69" stroke-width="1.51"/><path d="M1678,520L1614,418L1601,479Z" fill="#a43160" stroke="#a43160" stroke-width="1.51"/><path d="M-121,694L-102,812L-45,781Z" fill="#e78fa1" stroke="#e78fa1" stroke-width="1.51"/><path d="M87,-95L52,-10L157,14Z" fill="#e6dded" stroke="#e6dded" stroke-width="1.51"/><path d="M1461,999L1557,910L1441,886Z" fill="#8a0038" stroke="#8a0038" stroke-width="1.51"/><path d="M1567,792L1636,664L1567,670Z" fill="#a10a44" stroke="#a10a44" stroke-width="1.51"/><path d="M1602,1035L1557,910L1461,999Z" fill="#7c002e" stroke="#7c002e" stroke-width="1.51"/><path d="M-119,183L-73,277L-59,219Z" fill="#dfc8e2" stroke="#dfc8e2" stroke-width="1.51"/><path d="M-119,183L-127,318L-73,277Z" fill="#dfc5e0" stroke="#dfc5e0" stroke-width="1.51"/><path d="M-73,277L-127,318L-8,379Z" fill="#dfbbdb" stroke="#dfbbdb" stroke-width="1.51"/><path d="M-113,602L-159,459L-121,694Z" fill="#f49cc1" stroke="#f49cc1" stroke-width="1.51"/><path d="M1599,563L1678,520L1601,479Z" fill="#a4285b" stroke="#a4285b" stroke-width="1.51"/><path d="M1711,835L1636,664L1567,792Z" fill="#970639" stroke="#970639" stroke-width="1.51"/><path d="M-165,379L-159,459L-8,379Z" fill="#e8b2d6" stroke="#e8b2d6" stroke-width="1.51"/><path d="M-121,694L-141,929L-102,812Z" fill="#de8c9d" stroke="#de8c9d" stroke-width="1.51"/><path d="M1636,664L1644,638L1567,670Z" fill="#a20e4a" stroke="#a20e4a" stroke-width="1.51"/><path d="M1376,-28L1445,-28L1340,-92Z" fill="#cb8296" stroke="#cb8296" stroke-width="1.51"/><path d="M1457,119L1445,-28L1376,-28Z" fill="#c27a90" stroke="#c27a90" stroke-width="1.51"/><path d="M1538,15L1445,-28L1457,119Z" fill="#bb768a" stroke="#bb768a" stroke-width="1.51"/><path d="M1674,289L1570,162L1539,337Z" fill="#a15572" stroke="#a15572" stroke-width="1.51"/><path d="M-119,183L-165,379L-127,318Z" fill="#dfc2df" stroke="#dfc2df" stroke-width="1.51"/><path d="M-114,107L-119,183L-12,103Z" fill="#e3d4e8" stroke="#e3d4e8" stroke-width="1.51"/><path d="M191,-82L87,-95L157,14Z" fill="#e5daeb" stroke="#e5daeb" stroke-width="1.51"/><path d="M-42,-139L87,-95L341,-101Z" fill="#e9e0ee" stroke="#e9e0ee" stroke-width="1.51"/><path d="M-127,318L-165,379L-8,379Z" fill="#e4b8d9" stroke="#e4b8d9" stroke-width="1.51"/><path d="M-119,183L-59,219L-12,103Z" fill="#e1cfe5" stroke="#e1cfe5" stroke-width="1.51"/><path d="M-35,926L-63,1001L101,1008Z" fill="#bb7b8a" stroke="#bb7b8a" stroke-width="1.51"/><path d="M56,1067L-47,1143L141,1121Z" fill="#ac747e" stroke="#ac747e" stroke-width="1.51"/><path d="M-141,929L-63,1001L-35,926Z" fill="#c3808f" stroke="#c3808f" stroke-width="1.51"/><path d="M-24,-28L-12,103L52,-10Z" fill="#e7dfee" stroke="#e7dfee" stroke-width="1.51"/><path d="M1614,418L1674,289L1539,337Z" fill="#a0486b" stroke="#a0486b" stroke-width="1.51"/><path d="M1644,638L1678,520L1599,563Z" fill="#a51b55" stroke="#a51b55" stroke-width="1.51"/><path d="M87,-95L-24,-28L52,-10Z" fill="#e9e3f0" stroke="#e9e3f0" stroke-width="1.51"/><path d="M1570,162L1538,15L1457,119Z" fill="#b26c82" stroke="#b26c82" stroke-width="1.51"/><path d="M1445,-28L1504,-117L1340,-92Z" fill="#c88293" stroke="#c88293" stroke-width="1.51"/><path d="M1616,108L1538,15L1570,162Z" fill="#ac6b7d" stroke="#ac6b7d" stroke-width="1.51"/><path d="M-176,1036L-121,694L-159,459Z" fill="#ed93a7" stroke="#ed93a7" stroke-width="1.51"/><path d="M-176,1036L-141,929L-121,694Z" fill="#d18899" stroke="#d18899" stroke-width="1.51"/><path d="M-102,812L-141,929L-35,926Z" fill="#ce8598" stroke="#ce8598" stroke-width="1.51"/><path d="M-121,-15L-114,107L-12,103Z" fill="#e7ddec" stroke="#e7ddec" stroke-width="1.51"/><path d="M-119,183L-136,-73L-165,379Z" fill="#e4d2e7" stroke="#e4d2e7" stroke-width="1.51"/><path d="M1557,910L1711,835L1567,792Z" fill="#8a0235" stroke="#8a0235" stroke-width="1.51"/><path d="M1636,664L1711,835L1644,638Z" fill="#9c0a40" stroke="#9c0a40" stroke-width="1.51"/><path d="M1644,638L1711,835L1678,520Z" fill="#a00e47" stroke="#a00e47" stroke-width="1.51"/><path d="M1386,1106L1500,1143L1461,999Z" fill="#7a002d" stroke="#7a002d" stroke-width="1.51"/><path d="M1179,1144L1500,1143L1386,1106Z" fill="#840132" stroke="#840132" stroke-width="1.51"/><path d="M1500,1143L1558,1066L1461,999Z" fill="#740028" stroke="#740028" stroke-width="1.51"/><path d="M1717,383L1674,289L1614,418Z" fill="#9f4569" stroke="#9f4569" stroke-width="1.51"/><path d="M1670,117L1616,108L1570,162Z" fill="#a56577" stroke="#a56577" stroke-width="1.51"/><path d="M-162,1119L-47,1143L-63,1001Z" fill="#b17a81" stroke="#b17a81" stroke-width="1.51"/><path d="M-63,1001L-47,1143L56,1067Z" fill="#af7780" stroke="#af7780" stroke-width="1.51"/><path d="M141,1121L-47,1143L294,1123Z" fill="#a96d7b" stroke="#a96d7b" stroke-width="1.51"/><path d="M1687,1098L1602,1035L1558,1066Z" fill="#680020" stroke="#680020" stroke-width="1.51"/><path d="M1558,1066L1602,1035L1461,999Z" fill="#730028" stroke="#730028" stroke-width="1.51"/><path d="M1674,289L1688,203L1570,162Z" fill="#9f5971" stroke="#9f5971" stroke-width="1.51"/><path d="M1678,520L1717,383L1614,418Z" fill="#a33763" stroke="#a33763" stroke-width="1.51"/><path d="M1711,835L1717,383L1678,520Z" fill="#a51a54" stroke="#a51a54" stroke-width="1.51"/><path d="M1717,383L1688,203L1674,289Z" fill="#9c506d" stroke="#9c506d" stroke-width="1.51"/><path d="M1709,905L1711,835L1557,910Z" fill="#830132" stroke="#830132" stroke-width="1.51"/><path d="M1587,-64L1538,15L1686,10Z" fill="#b07682" stroke="#b07682" stroke-width="1.51"/><path d="M1587,-64L1504,-117L1538,15Z" fill="#b97b88" stroke="#b97b88" stroke-width="1.51"/><path d="M1538,15L1504,-117L1445,-28Z" fill="#be7d8c" stroke="#be7d8c" stroke-width="1.51"/><path d="M1340,-92L1504,-117L1146,-146Z" fill="#d6899b" stroke="#d6899b" stroke-width="1.51"/><path d="M1602,1035L1669,977L1557,910Z" fill="#76002a" stroke="#76002a" stroke-width="1.51"/><path d="M1687,1098L1669,977L1602,1035Z" fill="#6a0021" stroke="#6a0021" stroke-width="1.51"/><path d="M1688,203L1670,117L1570,162Z" fill="#a26075" stroke="#a26075" stroke-width="1.51"/><path d="M-24,-28L-121,-15L-12,103Z" fill="#e9e2ef" stroke="#e9e2ef" stroke-width="1.51"/><path d="M-114,107L-136,-73L-119,183Z" fill="#e8deed" stroke="#e8deed" stroke-width="1.51"/><path d="M-136,-73L-121,-15L-24,-28Z" fill="#ede8f3" stroke="#ede8f3" stroke-width="1.51"/><path d="M1669,977L1709,905L1557,910Z" fill="#7b002d" stroke="#7b002d" stroke-width="1.51"/><path d="M-141,929L-176,1036L-63,1001Z" fill="#be808b" stroke="#be808b" stroke-width="1.51"/><path d="M-165,379L-176,1036L-159,459Z" fill="#f49abb" stroke="#f49abb" stroke-width="1.51"/><path d="M87,-95L-42,-139L-24,-28Z" fill="#ece7f2" stroke="#ece7f2" stroke-width="1.51"/><path d="M572,-143L-42,-139L341,-101Z" fill="#e4d3e7" stroke="#e4d3e7" stroke-width="1.51"/><path d="M1686,10L1538,15L1616,108Z" fill="#ab6f7d" stroke="#ab6f7d" stroke-width="1.51"/><path d="M-176,1036L-162,1119L-63,1001Z" fill="#b37c83" stroke="#b37c83" stroke-width="1.51"/><path d="M-42,-139L-136,-73L-24,-28Z" fill="#efebf4" stroke="#efebf4" stroke-width="1.51"/><path d="M-121,-15L-136,-73L-114,107Z" fill="#ece6f2" stroke="#ece6f2" stroke-width="1.51"/><path d="M1670,117L1686,10L1616,108Z" fill="#a76a7a" stroke="#a76a7a" stroke-width="1.51"/><path d="M1688,203L1686,10L1670,117Z" fill="#a56778" stroke="#a56778" stroke-width="1.51"/><path d="M1717,383L1686,10L1688,203Z" fill="#a05c73" stroke="#a05c73" stroke-width="1.51"/><path d="M1669,977L1687,1098L1709,905Z" fill="#710026" stroke="#710026" stroke-width="1.51"/><path d="M1500,1143L1687,1098L1558,1066Z" fill="#6c0022" stroke="#6c0022" stroke-width="1.51"/><path d="M1686,10L1673,-141L1587,-64Z" fill="#b07980" stroke="#b07980" stroke-width="1.51"/><path d="M1587,-64L1673,-141L1504,-117Z" fill="#b67d85" stroke="#b67d85" stroke-width="1.51"/><path d="M1504,-117L1673,-141L1146,-146Z" fill="#c98594" stroke="#c98594" stroke-width="1.51"/></svg>